<svg xmlns="http://www.w3.org/2000/svg" xmlns:xlink="http://www.w3.org/1999/xlink" width="2048" zoomAndPan="magnify" viewBox="0 0 1536 1023.749952" height="1365" preserveAspectRatio="xMidYMid meet" version="1.0"><defs><clipPath id="4368c3e2dc"><path d="M 0.1875 0 L 1535.8125 0 L 1535.8125 1023.5 L 0.1875 1023.5 Z M 0.1875 0 " clip-rule="nonzero"/></clipPath><clipPath id="e26c1d70b5"><path d="M 294 21 L 1258.332031 21 L 1258.332031 985 L 294 985 Z M 294 21 " clip-rule="nonzero"/></clipPath></defs><g clip-path="url(#4368c3e2dc)"><path fill="#ffffff" d="M 0.1875 0 L 1535.8125 0 L 1535.8125 1023.5 L 0.1875 1023.5 Z M 0.1875 0 " fill-opacity="1" fill-rule="nonzero"/><path fill="#ffffff" d="M 0.1875 0 L 1535.8125 0 L 1535.8125 1023.5 L 0.1875 1023.5 Z M 0.1875 0 " fill-opacity="1" fill-rule="nonzero"/></g><g clip-path="url(#e26c1d70b5)"><path fill="#caddff" d="M 1013.429688 896.296875 C 1254.929688 745.363281 1258.175781 474.082031 1258.097656 461.644531 C 1257.238281 325.71875 1194.84375 129.351562 1026.222656 54.132812 C 946.3125 18.480469 819.984375 0.0195312 729.921875 60.054688 C 645.820312 116.117188 682.269531 181.347656 589.484375 293.308594 C 482.628906 422.253906 396.679688 404.839844 325.03125 517.457031 C 277.710938 591.839844 298.585938 681.871094 304.574219 707.691406 C 348.46875 897 578.871094 962.078125 604.714844 968.953125 C 809.855469 1023.523438 978.707031 917.996094 1013.429688 896.296875 " fill-opacity="1" fill-rule="nonzero"/></g><path fill="#5479f7" d="M 713.847656 140.992188 L 384.140625 140.992188 C 369.347656 140.992188 357.351562 152.984375 357.351562 167.785156 L 357.351562 686.207031 C 357.351562 701.003906 369.347656 712.996094 384.140625 712.996094 L 776.269531 712.996094 L 776.269531 203.414062 C 776.269531 168.941406 748.324219 140.992188 713.847656 140.992188 " fill-opacity="1" fill-rule="nonzero"/><path fill="#000000" d="M 384.140625 142.730469 C 370.332031 142.730469 359.09375 153.96875 359.09375 167.785156 L 359.09375 686.207031 C 359.09375 700.019531 370.332031 711.253906 384.140625 711.253906 L 774.527344 711.253906 L 774.527344 203.414062 C 774.527344 169.953125 747.304688 142.730469 713.847656 142.730469 Z M 776.269531 714.738281 L 384.140625 714.738281 C 368.410156 714.738281 355.613281 701.9375 355.613281 686.207031 L 355.613281 167.785156 C 355.613281 152.046875 368.410156 139.25 384.140625 139.25 L 713.847656 139.25 C 749.230469 139.25 778.007812 168.035156 778.007812 203.414062 L 778.007812 712.996094 C 778.007812 713.960938 777.226562 714.738281 776.269531 714.738281 " fill-opacity="1" fill-rule="nonzero"/><path fill="#5479f7" d="M 1168.390625 140.992188 L 838.6875 140.992188 C 804.210938 140.992188 776.269531 168.941406 776.269531 203.414062 L 776.269531 712.996094 L 1168.390625 712.996094 C 1183.1875 712.996094 1195.1875 701.003906 1195.1875 686.207031 L 1195.1875 167.785156 C 1195.1875 152.984375 1183.1875 140.992188 1168.390625 140.992188 " fill-opacity="1" fill-rule="nonzero"/><path fill="#000000" d="M 778.007812 711.253906 L 1168.390625 711.253906 C 1182.203125 711.253906 1193.441406 700.019531 1193.441406 686.207031 L 1193.441406 167.785156 C 1193.441406 153.96875 1182.203125 142.730469 1168.390625 142.730469 L 838.6875 142.730469 C 805.230469 142.730469 778.007812 169.953125 778.007812 203.414062 Z M 1168.390625 714.738281 L 776.269531 714.738281 C 775.308594 714.738281 774.527344 713.960938 774.527344 712.996094 L 774.527344 203.414062 C 774.527344 168.035156 803.308594 139.25 838.6875 139.25 L 1168.390625 139.25 C 1184.125 139.25 1196.921875 152.046875 1196.921875 167.785156 L 1196.921875 686.207031 C 1196.921875 701.9375 1184.125 714.738281 1168.390625 714.738281 " fill-opacity="1" fill-rule="nonzero"/><path fill="#99b9ff" d="M 776.269531 686.582031 L 387.257812 686.582031 L 387.257812 153.453125 L 430.636719 129.144531 L 776.269531 507.949219 L 776.269531 686.582031 " fill-opacity="1" fill-rule="nonzero"/><path fill="#000000" d="M 389 684.839844 L 774.527344 684.839844 L 774.527344 508.628906 L 430.28125 131.34375 L 389 154.476562 Z M 776.269531 688.320312 L 387.257812 688.320312 C 386.296875 688.320312 385.519531 687.542969 385.519531 686.582031 L 385.519531 153.453125 C 385.519531 152.824219 385.859375 152.242188 386.410156 151.933594 L 429.785156 127.628906 C 430.492188 127.230469 431.378906 127.375 431.921875 127.972656 L 777.554688 506.78125 C 777.847656 507.101562 778.007812 507.519531 778.007812 507.949219 L 778.007812 686.582031 C 778.007812 687.542969 777.226562 688.320312 776.269531 688.320312 " fill-opacity="1" fill-rule="nonzero"/><path fill="#99b9ff" d="M 776.269531 686.582031 L 1165.28125 686.582031 L 1165.28125 153.453125 L 1121.898438 129.144531 L 776.269531 507.949219 L 776.269531 686.582031 " fill-opacity="1" fill-rule="nonzero"/><path fill="#000000" d="M 778.007812 684.839844 L 1163.539062 684.839844 L 1163.539062 154.476562 L 1122.253906 131.34375 L 778.007812 508.628906 Z M 1165.28125 688.320312 L 776.269531 688.320312 C 775.308594 688.320312 774.527344 687.542969 774.527344 686.582031 L 774.527344 507.949219 C 774.527344 507.519531 774.691406 507.101562 774.980469 506.78125 L 1120.613281 127.972656 C 1121.160156 127.375 1122.046875 127.230469 1122.75 127.628906 L 1166.125 151.933594 C 1166.679688 152.242188 1167.015625 152.824219 1167.015625 153.453125 L 1167.015625 686.582031 C 1167.015625 687.542969 1166.238281 688.320312 1165.28125 688.320312 " fill-opacity="1" fill-rule="nonzero"/><path fill="#ffffff" d="M 1121.898438 129.144531 L 829.4375 129.144531 C 800.074219 129.144531 776.269531 152.953125 776.269531 182.320312 L 776.269531 686.582031 C 776.269531 657.21875 800.074219 633.410156 829.4375 633.410156 L 1121.898438 633.410156 L 1121.898438 129.144531 " fill-opacity="1" fill-rule="nonzero"/><path fill="#000000" d="M 829.4375 130.890625 C 801.082031 130.890625 778.007812 153.960938 778.007812 182.320312 L 778.007812 667.332031 C 785.824219 646.519531 805.925781 631.667969 829.4375 631.667969 L 1120.164062 631.667969 L 1120.164062 130.890625 Z M 776.269531 688.320312 C 775.308594 688.320312 774.527344 687.542969 774.527344 686.582031 L 774.527344 182.320312 C 774.527344 152.042969 799.160156 127.40625 829.4375 127.40625 L 1121.898438 127.40625 C 1122.863281 127.40625 1123.640625 128.183594 1123.640625 129.144531 L 1123.640625 633.410156 C 1123.640625 634.371094 1122.863281 635.148438 1121.898438 635.148438 L 829.4375 635.148438 C 801.082031 635.148438 778.007812 658.222656 778.007812 686.582031 C 778.007812 687.542969 777.226562 688.320312 776.269531 688.320312 " fill-opacity="1" fill-rule="nonzero"/><path fill="#ffffff" d="M 430.636719 129.144531 L 723.097656 129.144531 C 752.464844 129.144531 776.269531 152.953125 776.269531 182.320312 L 776.269531 686.582031 C 776.269531 657.21875 752.464844 633.410156 723.097656 633.410156 L 430.636719 633.410156 L 430.636719 129.144531 " fill-opacity="1" fill-rule="nonzero"/><path fill="#000000" d="M 432.378906 631.667969 L 723.097656 631.667969 C 746.605469 631.667969 766.710938 646.519531 774.527344 667.332031 L 774.527344 182.320312 C 774.527344 153.960938 751.457031 130.890625 723.097656 130.890625 L 432.378906 130.890625 Z M 776.269531 688.320312 C 775.308594 688.320312 774.527344 687.542969 774.527344 686.582031 C 774.527344 658.222656 751.457031 635.148438 723.097656 635.148438 L 430.636719 635.148438 C 429.671875 635.148438 428.894531 634.371094 428.894531 633.410156 L 428.894531 129.144531 C 428.894531 128.183594 429.671875 127.40625 430.636719 127.40625 L 723.097656 127.40625 C 753.375 127.40625 778.007812 152.042969 778.007812 182.320312 L 778.007812 686.582031 C 778.007812 687.542969 777.226562 688.320312 776.269531 688.320312 " fill-opacity="1" fill-rule="nonzero"/><path fill="#000000" d="M 696.480469 218.066406 L 490.453125 218.066406 C 489.488281 218.066406 488.710938 217.289062 488.710938 216.324219 C 488.710938 215.363281 489.488281 214.582031 490.453125 214.582031 L 696.480469 214.582031 C 697.4375 214.582031 698.21875 215.363281 698.21875 216.324219 C 698.21875 217.289062 697.4375 218.066406 696.480469 218.066406 " fill-opacity="1" fill-rule="nonzero"/><path fill="#000000" d="M 696.480469 250.472656 L 490.453125 250.472656 C 489.488281 250.472656 488.710938 249.691406 488.710938 248.726562 C 488.710938 247.765625 489.488281 246.984375 490.453125 246.984375 L 696.480469 246.984375 C 697.4375 246.984375 698.21875 247.765625 698.21875 248.726562 C 698.21875 249.691406 697.4375 250.472656 696.480469 250.472656 " fill-opacity="1" fill-rule="nonzero"/><path fill="#000000" d="M 580.351562 282.875 L 490.453125 282.875 C 489.488281 282.875 488.710938 282.089844 488.710938 281.132812 C 488.710938 280.167969 489.488281 279.390625 490.453125 279.390625 L 580.351562 279.390625 C 581.3125 279.390625 582.09375 280.167969 582.09375 281.132812 C 582.09375 282.089844 581.3125 282.875 580.351562 282.875 " fill-opacity="1" fill-rule="nonzero"/><path fill="#5479f7" d="M 710.417969 686.582031 L 710.417969 717.992188 C 710.417969 726.9375 717.660156 734.179688 726.597656 734.179688 L 826.304688 734.179688 C 835.25 734.179688 842.492188 726.9375 842.492188 717.992188 L 842.492188 686.582031 L 710.417969 686.582031 " fill-opacity="1" fill-rule="nonzero"/><path fill="#000000" d="M 712.15625 688.320312 L 712.15625 717.992188 C 712.15625 725.964844 718.632812 732.4375 726.597656 732.4375 L 826.304688 732.4375 C 834.277344 732.4375 840.75 725.964844 840.75 717.992188 L 840.75 688.320312 Z M 826.304688 735.921875 L 726.597656 735.921875 C 716.71875 735.921875 708.671875 727.878906 708.671875 717.992188 L 708.671875 686.582031 C 708.671875 685.621094 709.453125 684.839844 710.417969 684.839844 L 842.492188 684.839844 C 843.457031 684.839844 844.238281 685.621094 844.238281 686.582031 L 844.238281 717.992188 C 844.238281 727.878906 836.191406 735.921875 826.304688 735.921875 " fill-opacity="1" fill-rule="nonzero"/><path fill="#ffffff" d="M 1061.3125 906.292969 L 1059.875 932.707031 L 1042.21875 935.6875 L 1040.648438 904.53125 L 1061.3125 906.292969 " fill-opacity="1" fill-rule="nonzero"/><path fill="#000000" d="M 1042.488281 906.433594 L 1043.855469 933.644531 L 1058.21875 931.222656 L 1059.480469 907.882812 Z M 1042.21875 937.429688 C 1041.824219 937.429688 1041.441406 937.292969 1041.128906 937.042969 C 1040.742188 936.734375 1040.503906 936.269531 1040.480469 935.773438 L 1038.910156 904.617188 C 1038.882812 904.113281 1039.078125 903.628906 1039.441406 903.277344 C 1039.800781 902.929688 1040.289062 902.75 1040.800781 902.796875 L 1061.460938 904.5625 C 1062.398438 904.640625 1063.105469 905.453125 1063.050781 906.386719 L 1061.617188 932.800781 C 1061.570312 933.617188 1060.972656 934.289062 1060.164062 934.425781 L 1042.511719 937.402344 C 1042.410156 937.417969 1042.316406 937.429688 1042.21875 937.429688 " fill-opacity="1" fill-rule="nonzero"/><path fill="#5479f7" d="M 1041.726562 981.566406 C 1049.183594 982.234375 1061.371094 982.542969 1075.523438 979.851562 C 1080.160156 978.96875 1083.027344 974.28125 1081.671875 969.757812 C 1077.890625 957.160156 1071.261719 933.238281 1061.417969 922.492188 L 1059.417969 928.691406 L 1055.945312 923.125 C 1055.472656 922.359375 1054.660156 921.871094 1053.765625 921.800781 L 1046.746094 921.273438 C 1045.28125 921.160156 1043.972656 922.191406 1043.742188 923.644531 L 1042.898438 928.976562 L 1040.121094 922.171875 L 1034.550781 973.019531 C 1034.199219 977.351562 1037.394531 981.179688 1041.726562 981.566406 " fill-opacity="1" fill-rule="nonzero"/><path fill="#000000" d="M 1041.882812 979.835938 C 1049.453125 980.511719 1061.375 980.765625 1075.195312 978.140625 C 1076.933594 977.808594 1078.453125 976.753906 1079.363281 975.25 C 1080.285156 973.734375 1080.511719 971.957031 1080 970.257812 L 1079.183594 967.519531 C 1075.675781 955.710938 1069.976562 936.550781 1062.097656 926.050781 L 1061.078125 929.21875 C 1060.867188 929.867188 1060.304688 930.332031 1059.628906 930.414062 C 1058.949219 930.5 1058.300781 930.183594 1057.9375 929.609375 L 1054.46875 924.046875 C 1054.285156 923.757812 1053.976562 923.5625 1053.632812 923.539062 L 1046.617188 923.007812 C 1046.035156 922.949219 1045.554688 923.367188 1045.460938 923.914062 L 1044.621094 929.246094 C 1044.5 930.019531 1043.878906 930.617188 1043.101562 930.707031 C 1042.335938 930.796875 1041.582031 930.359375 1041.289062 929.636719 L 1041.101562 929.179688 L 1036.28125 973.199219 C 1036.015625 976.535156 1038.523438 979.527344 1041.882812 979.835938 Z M 1052.273438 983.765625 C 1048.152344 983.765625 1044.539062 983.566406 1041.570312 983.304688 C 1036.316406 982.832031 1032.386719 978.152344 1032.8125 972.875 L 1038.386719 921.980469 C 1038.476562 921.191406 1039.089844 920.558594 1039.878906 920.449219 C 1040.667969 920.34375 1041.429688 920.777344 1041.730469 921.511719 L 1042.199219 922.65625 C 1042.847656 920.707031 1044.769531 919.390625 1046.878906 919.535156 L 1053.894531 920.066406 C 1055.339844 920.175781 1056.65625 920.976562 1057.421875 922.203125 L 1058.914062 924.585938 L 1059.761719 921.953125 C 1059.949219 921.367188 1060.4375 920.925781 1061.046875 920.792969 C 1061.648438 920.664062 1062.28125 920.859375 1062.699219 921.3125 C 1072.140625 931.621094 1078.644531 953.476562 1082.523438 966.53125 L 1083.335938 969.257812 C 1084.125 971.875 1083.757812 974.71875 1082.34375 977.054688 C 1080.917969 979.402344 1078.546875 981.046875 1075.847656 981.5625 C 1067.042969 983.238281 1058.988281 983.765625 1052.273438 983.765625 " fill-opacity="1" fill-rule="nonzero"/><path fill="#000000" d="M 1057.785156 975.070312 C 1047.832031 975.070312 1040.324219 973.371094 1039.832031 973.253906 C 1038.898438 973.039062 1038.316406 972.101562 1038.53125 971.164062 C 1038.746094 970.226562 1039.679688 969.648438 1040.621094 969.863281 C 1040.804688 969.90625 1059.117188 974.039062 1076.132812 969.25 C 1077.058594 968.988281 1078.015625 969.527344 1078.28125 970.453125 C 1078.539062 971.378906 1078 972.339844 1077.074219 972.601562 C 1070.421875 974.476562 1063.675781 975.070312 1057.785156 975.070312 " fill-opacity="1" fill-rule="nonzero"/><path fill="#000000" d="M 1048.515625 955.507812 C 1047.566406 955.507812 1046.789062 954.742188 1046.773438 953.796875 C 1046.757812 952.832031 1047.519531 952.042969 1048.484375 952.019531 L 1065.164062 951.734375 C 1066.105469 951.699219 1066.914062 952.484375 1066.933594 953.445312 C 1066.949219 954.40625 1066.183594 955.195312 1065.222656 955.214844 L 1048.546875 955.507812 C 1048.535156 955.507812 1048.519531 955.507812 1048.515625 955.507812 " fill-opacity="1" fill-rule="nonzero"/><path fill="#ffffff" d="M 977.402344 896.5 L 976.671875 934.972656 L 955.296875 936.054688 L 952.371094 897.765625 L 977.402344 896.5 " fill-opacity="1" fill-rule="nonzero"/><path fill="#000000" d="M 954.242188 899.410156 L 956.902344 934.230469 L 974.960938 933.320312 L 975.625 898.332031 Z M 955.292969 937.796875 C 954.394531 937.796875 953.628906 937.097656 953.5625 936.1875 L 950.632812 897.894531 C 950.597656 897.425781 950.753906 896.964844 951.0625 896.609375 C 951.371094 896.257812 951.8125 896.050781 952.285156 896.023438 L 977.3125 894.757812 C 977.777344 894.742188 978.265625 894.914062 978.613281 895.246094 C 978.960938 895.585938 979.152344 896.050781 979.140625 896.53125 L 978.414062 935.011719 C 978.390625 935.921875 977.671875 936.671875 976.761719 936.71875 L 955.382812 937.792969 C 955.359375 937.796875 955.324219 937.796875 955.292969 937.796875 " fill-opacity="1" fill-rule="nonzero"/><path fill="#5479f7" d="M 983.347656 956.34375 C 983.582031 959.96875 981.265625 963.277344 977.777344 964.277344 C 965.632812 967.757812 938.269531 975.519531 930.429688 977.097656 C 920.261719 979.132812 907.503906 976.632812 901.789062 970.910156 C 896.070312 965.1875 912.890625 949.988281 920.957031 944.363281 C 932.929688 936 944.039062 920.113281 948.988281 919.171875 C 953.933594 918.230469 963.964844 932.214844 963.964844 932.214844 L 978.839844 925.066406 C 978.839844 925.066406 982.144531 937.960938 983.347656 956.34375 " fill-opacity="1" fill-rule="nonzero"/><path fill="#000000" d="M 949.542969 920.859375 C 949.464844 920.859375 949.386719 920.871094 949.3125 920.882812 C 947.382812 921.25 943.035156 925.808594 938.832031 930.226562 C 933.785156 935.515625 928.066406 941.519531 921.949219 945.789062 C 914.070312 951.289062 902.890625 961.945312 902.382812 967.640625 C 902.285156 968.796875 902.699219 969.359375 903.019531 969.679688 C 908.136719 974.796875 920.28125 977.359375 930.089844 975.386719 C 937.886719 973.820312 965.699219 965.925781 977.296875 962.605469 C 979.976562 961.835938 981.792969 959.25 981.609375 956.453125 C 980.710938 942.65625 978.589844 931.90625 977.640625 927.574219 L 964.714844 933.785156 C 963.957031 934.152344 963.042969 933.917969 962.546875 933.234375 C 958.164062 927.121094 952.023438 920.859375 949.542969 920.859375 Z M 923.085938 979.539062 C 914.152344 979.539062 905.15625 976.742188 900.558594 972.144531 C 899.316406 970.902344 898.75 969.238281 898.921875 967.332031 C 899.664062 958.886719 914.738281 946.578125 919.960938 942.933594 C 925.789062 938.867188 931.378906 932.996094 936.3125 927.820312 C 942.265625 921.570312 945.773438 918.007812 948.660156 917.460938 C 953.761719 916.496094 961.273438 925.683594 964.511719 930.019531 L 978.085938 923.496094 C 978.558594 923.269531 979.105469 923.265625 979.578125 923.488281 C 980.050781 923.707031 980.398438 924.128906 980.53125 924.628906 C 980.5625 924.761719 983.886719 937.898438 985.082031 956.226562 C 985.375 960.644531 982.503906 964.730469 978.257812 965.953125 C 963.800781 970.089844 938.410156 977.269531 930.777344 978.800781 C 928.292969 979.296875 925.691406 979.539062 923.085938 979.539062 " fill-opacity="1" fill-rule="nonzero"/><path fill="#000000" d="M 922.140625 972.492188 C 915.386719 972.492188 909.4375 971.1875 905.316406 967.828125 C 904.570312 967.21875 904.457031 966.121094 905.0625 965.378906 C 905.671875 964.636719 906.769531 964.519531 907.515625 965.132812 C 923.824219 978.429688 976.429688 954.011719 976.960938 953.765625 C 977.835938 953.351562 978.867188 953.730469 979.277344 954.601562 C 979.679688 955.46875 979.308594 956.507812 978.441406 956.917969 C 976.707031 957.730469 944.875 972.492188 922.140625 972.492188 " fill-opacity="1" fill-rule="nonzero"/><path fill="#000000" d="M 947.472656 948.023438 C 947.082031 948.023438 946.695312 947.894531 946.371094 947.628906 L 935.007812 938.371094 C 934.257812 937.765625 934.148438 936.671875 934.753906 935.921875 C 935.363281 935.175781 936.457031 935.066406 937.207031 935.675781 L 948.570312 944.929688 C 949.316406 945.539062 949.429688 946.636719 948.824219 947.382812 C 948.476562 947.804688 947.976562 948.023438 947.472656 948.023438 " fill-opacity="1" fill-rule="nonzero"/><path fill="#000000" d="M 1047.050781 640.40625 C 1047.050781 640.40625 1066.730469 761.566406 1072.28125 802.769531 C 1077.835938 843.96875 1069.621094 911.066406 1069.621094 911.066406 L 1036.535156 911 C 1036.535156 911 1030.195312 830.242188 1026.613281 807.90625 C 1026.613281 807.90625 1011.140625 778.167969 1005.644531 751.222656 C 1000.144531 724.277344 983.910156 682.097656 983.910156 682.097656 C 983.910156 682.097656 983.277344 896.742188 983.023438 913.617188 C 983.023438 913.617188 957.210938 916.070312 947.640625 910.699219 C 947.640625 910.699219 927.265625 833.476562 927.480469 790.886719 C 927.703125 748.300781 928.167969 641.722656 928.167969 641.722656 L 1047.050781 640.40625 " fill-opacity="1" fill-rule="nonzero"/><path fill="#ffffff" d="M 1032.6875 809.335938 C 1031.765625 809.335938 1030.996094 808.613281 1030.949219 807.679688 C 1030.902344 806.722656 1031.640625 805.902344 1032.601562 805.855469 L 1042.6875 805.347656 C 1043.652344 805.320312 1044.46875 806.039062 1044.515625 806.996094 C 1044.5625 807.960938 1043.820312 808.773438 1042.863281 808.824219 L 1032.777344 809.335938 C 1032.746094 809.335938 1032.71875 809.335938 1032.6875 809.335938 " fill-opacity="1" fill-rule="nonzero"/><path fill="#ffffff" d="M 963.984375 875.214844 C 963.078125 875.214844 962.308594 874.515625 962.25 873.59375 C 960.941406 854.578125 937.101562 819.710938 936.859375 819.363281 C 936.316406 818.566406 936.515625 817.488281 937.3125 816.941406 C 938.101562 816.398438 939.183594 816.59375 939.734375 817.390625 C 940.734375 818.851562 964.347656 853.394531 965.722656 873.359375 C 965.792969 874.316406 965.0625 875.148438 964.105469 875.210938 C 964.0625 875.214844 964.027344 875.214844 963.984375 875.214844 " fill-opacity="1" fill-rule="nonzero"/><path fill="#ffffff" d="M 924.191406 463.675781 L 756.867188 490.996094 L 780.828125 508.089844 C 780.828125 508.089844 907.183594 528.410156 948.5625 516.183594 L 924.191406 463.675781 " fill-opacity="1" fill-rule="nonzero"/><path fill="#000000" d="M 781.507812 506.4375 C 789.261719 507.660156 904.898438 525.5625 946.117188 515.050781 L 923.171875 465.609375 L 761.320312 492.035156 Z M 908.53125 521.867188 C 856.3125 521.867188 784.5 510.445312 780.550781 509.8125 C 780.289062 509.769531 780.035156 509.664062 779.820312 509.511719 L 755.855469 492.414062 C 755.28125 492 755.011719 491.285156 755.171875 490.597656 C 755.332031 489.914062 755.894531 489.390625 756.589844 489.273438 L 923.914062 461.960938 C 924.679688 461.835938 925.445312 462.234375 925.769531 462.949219 L 950.140625 515.449219 C 950.355469 515.910156 950.355469 516.441406 950.152344 516.898438 C 949.9375 517.363281 949.539062 517.710938 949.054688 517.851562 C 939.230469 520.757812 924.835938 521.867188 908.53125 521.867188 " fill-opacity="1" fill-rule="nonzero"/><path fill="#5479f7" d="M 1046.496094 645.539062 L 926.855469 650.921875 L 930.792969 522.175781 L 913.726562 526.523438 L 892.914062 462.113281 C 892.914062 462.113281 984.210938 447.777344 1046.296875 449.457031 C 1061.261719 449.863281 1075.46875 456.082031 1085.964844 466.765625 C 1100.539062 481.605469 1120.375 504.300781 1125.796875 522.683594 L 1060.464844 547.34375 L 1054.25 538.179688 C 1054.25 538.179688 1043.769531 595.082031 1046.496094 645.539062 " fill-opacity="1" fill-rule="nonzero"/><path fill="#000000" d="M 1054.25 539.921875 C 1053.59375 539.921875 1052.96875 539.546875 1052.675781 538.914062 L 1041.15625 514.253906 C 1040.75 513.386719 1041.128906 512.351562 1042 511.945312 C 1042.867188 511.535156 1043.902344 511.914062 1044.316406 512.785156 L 1055.828125 537.441406 C 1056.234375 538.316406 1055.859375 539.347656 1054.984375 539.757812 C 1054.75 539.867188 1054.496094 539.921875 1054.25 539.921875 " fill-opacity="1" fill-rule="nonzero"/><path fill="#99b9ff" d="M 696.683594 437.144531 L 740.8125 390.945312 L 1173.570312 806.039062 C 1178.171875 810.449219 1177.949219 818.921875 1172.824219 826.726562 C 1166.691406 836.078125 1159.09375 844.035156 1150.035156 850.589844 C 1142.476562 856.058594 1134.042969 856.652344 1129.441406 852.234375 L 696.683594 437.144531 " fill-opacity="1" fill-rule="nonzero"/><path fill="#000000" d="M 1076.324219 739.925781 C 1075.890625 739.925781 1075.457031 739.765625 1075.121094 739.441406 L 892.207031 563.996094 C 891.511719 563.332031 891.492188 562.226562 892.15625 561.539062 C 892.824219 560.84375 893.921875 560.824219 894.617188 561.484375 L 1077.53125 736.929688 C 1078.226562 737.59375 1078.25 738.699219 1077.585938 739.390625 C 1077.242188 739.746094 1076.785156 739.925781 1076.324219 739.925781 " fill-opacity="1" fill-rule="nonzero"/><path fill="#000000" d="M 851.589844 524.363281 C 851.152344 524.363281 850.71875 524.207031 850.386719 523.878906 L 770.992188 447.726562 C 770.296875 447.0625 770.277344 445.960938 770.9375 445.269531 C 771.605469 444.574219 772.707031 444.550781 773.402344 445.214844 L 852.789062 521.367188 C 853.484375 522.03125 853.511719 523.132812 852.84375 523.824219 C 852.5 524.1875 852.042969 524.363281 851.589844 524.363281 " fill-opacity="1" fill-rule="nonzero"/><path fill="#000000" d="M 1113.613281 807.945312 C 1113.179688 807.945312 1112.75 807.78125 1112.410156 807.457031 L 808.277344 515.746094 C 807.582031 515.078125 807.558594 513.976562 808.222656 513.28125 C 808.894531 512.585938 809.992188 512.566406 810.6875 513.230469 L 1114.816406 804.945312 C 1115.511719 805.613281 1115.539062 806.710938 1114.871094 807.40625 C 1114.527344 807.765625 1114.070312 807.945312 1113.613281 807.945312 " fill-opacity="1" fill-rule="nonzero"/><path fill="#ffffff" d="M 619.894531 342.804688 L 619.941406 342.867188 C 624.726562 339.863281 630.582031 334.320312 634.625 330.085938 C 638.667969 325.855469 640.675781 323.164062 643.457031 318.242188 L 740.753906 390.890625 C 731.023438 411.066406 716.3125 426.46875 696.625 437.089844 L 619.894531 342.804688 " fill-opacity="1" fill-rule="nonzero"/><path fill="#000000" d="M 643.457031 318.246094 C 640.675781 323.164062 638.667969 325.855469 634.625 330.085938 C 630.582031 334.324219 624.726562 339.863281 619.941406 342.867188 L 619.894531 342.804688 L 696.625 437.089844 C 716.3125 426.46875 731.023438 411.066406 740.753906 390.894531 Z M 644.472656 323.351562 L 736.34375 391.941406 C 727.414062 409.261719 714.359375 422.929688 697.480469 432.628906 L 625.007812 343.574219 C 629.996094 339.796875 634.96875 334.773438 637.140625 332.492188 C 640.367188 329.117188 642.398438 326.617188 644.472656 323.351562 " fill-opacity="1" fill-rule="nonzero"/><path fill="#000000" d="M 633.246094 332.039062 C 629.203125 336.273438 624.726562 339.863281 619.941406 342.867188 L 573.042969 285.238281 C 568.910156 280.164062 578.710938 269.902344 583.953125 273.816406 L 643.457031 318.242188 C 640.675781 323.164062 637.292969 327.808594 633.246094 332.039062 " fill-opacity="1" fill-rule="nonzero"/><path fill="#ffffff" d="M 761.6875 499.5 C 761.6875 499.5 723.828125 485.753906 751.222656 462.121094 L 761.6875 499.5 " fill-opacity="1" fill-rule="nonzero"/><path fill="#000000" d="M 750.308594 465.308594 C 744.695312 470.738281 742.304688 475.945312 743.195312 480.808594 C 744.625 488.585938 753.960938 494.03125 759.027344 496.449219 Z M 761.6875 501.242188 C 761.488281 501.242188 761.289062 501.203125 761.09375 501.136719 C 760.320312 500.851562 742.101562 494.109375 739.773438 481.445312 C 738.535156 474.71875 742.003906 467.769531 750.085938 460.796875 C 750.539062 460.414062 751.160156 460.277344 751.730469 460.449219 C 752.296875 460.625 752.738281 461.078125 752.902344 461.652344 L 763.363281 499.03125 C 763.542969 499.65625 763.347656 500.332031 762.871094 500.773438 C 762.542969 501.078125 762.121094 501.242188 761.6875 501.242188 " fill-opacity="1" fill-rule="nonzero"/><path fill="#ffffff" d="M 1118.597656 525.8125 L 1070.050781 543.726562 C 1070.050781 543.726562 1078.257812 619.558594 1025.835938 645.644531 C 1025.835938 645.644531 997.425781 642.128906 987.589844 659.007812 C 987.589844 659.007812 1007.476562 658.109375 1024.121094 662.695312 C 1040.769531 667.273438 1139.949219 638.675781 1118.597656 525.8125 " fill-opacity="1" fill-rule="nonzero"/><path fill="#000000" d="M 1028.3125 664.871094 C 1026.4375 664.871094 1024.867188 664.703125 1023.660156 664.371094 C 1007.484375 659.917969 987.863281 660.738281 987.667969 660.742188 C 987.03125 660.785156 986.429688 660.457031 986.097656 659.90625 C 985.769531 659.359375 985.761719 658.679688 986.082031 658.128906 C 995.738281 641.566406 1021.351562 643.441406 1025.515625 643.855469 C 1075.757812 618.410156 1068.386719 547.386719 1068.308594 546.667969 C 1068.203125 545.71875 1068.886719 544.855469 1069.847656 544.75 C 1070.816406 544.632812 1071.664062 545.328125 1071.765625 546.28125 C 1071.859375 547.039062 1073.804688 565.082031 1069.300781 586.632812 C 1063.304688 615.347656 1048.542969 636.289062 1026.613281 647.203125 C 1026.304688 647.355469 1025.96875 647.414062 1025.621094 647.371094 C 1025.371094 647.339844 1001.476562 644.578125 990.980469 657.191406 C 997.457031 657.144531 1011.835938 657.5 1024.585938 661.011719 C 1031.777344 662.996094 1061.980469 657.800781 1087.398438 634.375 C 1106.804688 616.488281 1127.679688 583.191406 1116.886719 526.132812 C 1116.707031 525.191406 1117.328125 524.273438 1118.269531 524.101562 C 1119.214844 523.921875 1120.125 524.539062 1120.304688 525.484375 C 1131.394531 584.113281 1109.816406 618.453125 1089.761719 636.9375 C 1068.230469 656.78125 1041.164062 664.871094 1028.3125 664.871094 " fill-opacity="1" fill-rule="nonzero"/><path fill="#000000" d="M 971.675781 392.480469 C 971.179688 392.480469 969.269531 393.671875 967.707031 396.746094 C 966.101562 399.902344 966.320312 402.183594 966.675781 402.511719 C 967.121094 402.574219 969.074219 401.414062 970.679688 398.253906 C 972.285156 395.09375 972.070312 392.816406 971.714844 392.484375 C 971.699219 392.480469 971.691406 392.480469 971.675781 392.480469 Z M 966.664062 405.976562 C 965.972656 405.976562 965.4375 405.789062 965.074219 405.605469 C 962.417969 404.25 962.214844 399.859375 964.601562 395.164062 C 965.605469 393.195312 966.925781 391.5 968.328125 390.40625 C 970.707031 388.53125 972.476562 388.960938 973.3125 389.394531 C 975.976562 390.746094 976.171875 395.136719 973.785156 399.832031 C 972.785156 401.804688 971.460938 403.492188 970.0625 404.59375 C 968.710938 405.65625 967.558594 405.976562 966.664062 405.976562 " fill-opacity="1" fill-rule="nonzero"/><path fill="#ffffff" d="M 993.179688 459.644531 C 997.890625 459.644531 1002.417969 458.882812 1006.667969 457.496094 C 1010.503906 456.246094 1014.121094 454.496094 1017.40625 452.289062 C 1003.09375 447.261719 1008.132812 425.472656 1008.132812 425.472656 C 1018.945312 401.65625 1010.535156 386.476562 997.757812 383.320312 C 979.625 378.839844 977.324219 389.378906 977.324219 389.378906 C 975.949219 392.207031 972.75 398.804688 971.507812 399.558594 C 969.984375 400.492188 966.347656 401.421875 965.753906 402.183594 C 965.164062 402.945312 965.5 405.398438 967.785156 407.515625 C 967.785156 407.515625 961.1875 421.304688 963.386719 425.445312 C 965.585938 429.589844 981.234375 433.058594 981.234375 433.058594 C 981.234375 433.058594 984.914062 449.804688 974.738281 455.542969 C 978.609375 457.351562 982.777344 458.617188 987.15625 459.226562 C 989.125 459.492188 991.132812 459.644531 993.179688 459.644531 " fill-opacity="1" fill-rule="nonzero"/><path fill="#000000" d="M 978.234375 455.140625 C 981.199219 456.277344 984.265625 457.066406 987.394531 457.496094 C 989.351562 457.765625 991.300781 457.902344 993.175781 457.902344 C 997.566406 457.902344 1001.921875 457.214844 1006.128906 455.839844 C 1008.796875 454.976562 1011.351562 453.855469 1013.757812 452.496094 C 1001.917969 445.324219 1006.234375 425.964844 1006.433594 425.078125 C 1006.460938 424.96875 1006.496094 424.855469 1006.546875 424.753906 C 1011.898438 412.964844 1012.804688 402.257812 1009.09375 394.601562 C 1006.722656 389.699219 1002.550781 386.300781 997.34375 385.007812 C 990.828125 383.402344 985.628906 383.644531 982.308594 385.710938 C 979.609375 387.394531 979.03125 389.726562 979.03125 389.746094 C 979 389.882812 978.953125 390.015625 978.890625 390.136719 C 974.882812 398.410156 973.476562 400.398438 972.414062 401.050781 C 971.59375 401.550781 970.402344 401.996094 969.253906 402.429688 C 968.617188 402.671875 967.707031 403.015625 967.238281 403.25 C 967.273438 403.792969 967.660156 405.023438 968.96875 406.234375 C 969.527344 406.757812 969.6875 407.578125 969.355469 408.265625 C 966.363281 414.515625 963.820312 422.550781 964.925781 424.628906 C 966.046875 426.753906 974.460938 429.773438 981.609375 431.359375 C 982.273438 431.503906 982.789062 432.023438 982.933594 432.6875 C 983.082031 433.355469 986.136719 447.8125 978.234375 455.140625 Z M 993.175781 461.386719 C 991.140625 461.386719 989.035156 461.242188 986.917969 460.945312 C 982.460938 460.328125 978.117188 459.046875 974.007812 457.125 C 973.410156 456.847656 973.03125 456.265625 973.003906 455.613281 C 972.976562 454.960938 973.316406 454.347656 973.886719 454.027344 C 981.453125 449.757812 980.28125 438.09375 979.726562 434.496094 C 975.460938 433.484375 964.054688 430.421875 961.847656 426.261719 C 959.625 422.078125 963.933594 411.742188 965.707031 407.859375 C 963.566406 405.335938 963.292969 402.507812 964.382812 401.113281 C 964.980469 400.34375 966.101562 399.898438 968.027344 399.171875 C 968.980469 398.8125 970.054688 398.410156 970.597656 398.074219 C 971.007812 397.707031 972.296875 395.738281 975.6875 388.761719 C 975.945312 387.894531 977.027344 384.898438 980.46875 382.757812 C 984.660156 380.136719 990.621094 379.761719 998.179688 381.628906 C 1004.410156 383.164062 1009.398438 387.234375 1012.222656 393.078125 C 1016.378906 401.652344 1015.515625 413.339844 1009.792969 426.019531 C 1009.398438 427.925781 1005.90625 446.410156 1017.984375 450.652344 C 1018.605469 450.871094 1019.054688 451.421875 1019.132812 452.074219 C 1019.214844 452.730469 1018.921875 453.375 1018.371094 453.738281 C 1014.953125 456.035156 1011.195312 457.855469 1007.210938 459.152344 C 1002.652344 460.636719 997.933594 461.386719 993.175781 461.386719 " fill-opacity="1" fill-rule="nonzero"/><path fill="#000000" d="M 1007.933594 376.8125 C 1003.375 375.5 998.035156 375.757812 995.84375 374.796875 C 992.3125 373.242188 992.753906 369.058594 987.65625 368.199219 C 983.171875 367.445312 978.898438 367.925781 976.324219 371.1875 C 975.890625 371.730469 975.507812 372.347656 975.175781 373.054688 C 970.777344 382.519531 975.28125 387.65625 977.324219 389.378906 C 977.324219 389.378906 990.519531 397.179688 992.734375 399.285156 C 994.800781 401.257812 997.054688 405.714844 995.09375 411.714844 C 994.847656 412.480469 995.121094 413.316406 995.785156 413.765625 L 995.820312 413.789062 C 996.617188 414.332031 997.691406 414.1875 998.300781 413.453125 C 1000.21875 411.132812 1004.375 406.6875 1007.054688 408.03125 C 1010.324219 409.664062 1010.609375 418.585938 1003.582031 419.488281 C 1002.308594 419.648438 1001.566406 420.988281 1002.078125 422.167969 C 1002.886719 424.015625 1004.589844 426.050781 1008.132812 425.472656 C 1008.132812 425.472656 1023.851562 416.191406 1026.8125 402.429688 C 1029.765625 388.664062 1014 378.558594 1007.933594 376.8125 " fill-opacity="1" fill-rule="nonzero"/><path fill="#000000" d="M 981.136719 396.148438 C 980.6875 396.148438 980.148438 396.332031 979.578125 396.675781 C 978.476562 397.355469 977.417969 398.566406 976.6875 400.011719 C 975.949219 401.457031 975.589844 403.023438 975.695312 404.316406 C 975.777344 405.304688 976.117188 406.019531 976.632812 406.277344 C 977.800781 406.878906 980.207031 405.410156 981.664062 402.546875 C 982.398438 401.097656 982.761719 399.527344 982.65625 398.242188 C 982.574219 397.253906 982.230469 396.539062 981.714844 396.277344 C 981.550781 396.191406 981.355469 396.148438 981.136719 396.148438 Z M 977.191406 409.890625 C 976.449219 409.890625 975.722656 409.726562 975.054688 409.382812 C 973.4375 408.5625 972.40625 406.820312 972.226562 404.605469 C 972.066406 402.660156 972.542969 400.46875 973.582031 398.433594 C 974.613281 396.402344 976.101562 394.722656 977.765625 393.703125 C 979.667969 392.546875 981.683594 392.355469 983.292969 393.175781 C 984.910156 393.996094 985.941406 395.738281 986.125 397.953125 C 986.285156 399.898438 985.804688 402.085938 984.765625 404.125 C 982.957031 407.691406 979.929688 409.890625 977.191406 409.890625 " fill-opacity="1" fill-rule="nonzero"/><path fill="#000000" d="M 975.277344 400.417969 C 974.613281 400.417969 973.984375 400.039062 973.691406 399.402344 C 973.558594 399.136719 973.285156 398.84375 973.171875 398.84375 C 973.179688 398.84375 973.117188 398.84375 973.089844 398.84375 C 972.164062 398.84375 971.398438 398.113281 971.351562 397.175781 C 971.320312 396.21875 972.058594 395.40625 973.023438 395.363281 C 975.109375 395.273438 976.414062 396.960938 976.859375 397.964844 C 977.253906 398.84375 976.859375 399.871094 975.980469 400.265625 C 975.75 400.367188 975.507812 400.417969 975.277344 400.417969 " fill-opacity="1" fill-rule="nonzero"/><path fill="#000000" d="M 999.601562 409.03125 C 999.359375 409.03125 999.113281 408.980469 998.875 408.867188 L 983.628906 401.84375 C 982.753906 401.441406 982.378906 400.40625 982.777344 399.53125 C 983.183594 398.660156 984.214844 398.277344 985.085938 398.683594 L 1000.332031 405.707031 C 1001.203125 406.109375 1001.585938 407.144531 1001.1875 408.019531 C 1000.890625 408.65625 1000.257812 409.03125 999.601562 409.03125 " fill-opacity="1" fill-rule="nonzero"/><path fill="#5479f7" d="M 980.597656 287.71875 C 979.457031 286.734375 979.039062 285.183594 979.550781 283.765625 C 980.25 281.800781 980.398438 279.84375 979.902344 277.980469 C 977.601562 269.304688 962.296875 265.835938 945.71875 270.238281 C 929.144531 274.640625 917.574219 285.238281 919.875 293.914062 C 920.371094 295.777344 921.472656 297.40625 923.050781 298.757812 C 924.199219 299.742188 924.609375 301.296875 924.105469 302.71875 C 923.402344 304.679688 923.257812 306.632812 923.75 308.503906 C 924.839844 312.621094 928.863281 315.558594 934.550781 317.046875 C 934.566406 317.542969 934.632812 318.03125 934.757812 318.515625 C 936.464844 324.933594 947.785156 327.496094 960.058594 324.246094 C 972.320312 320.984375 980.882812 313.140625 979.183594 306.722656 C 979.050781 306.238281 978.859375 305.78125 978.628906 305.34375 C 982.835938 301.226562 984.867188 296.683594 983.769531 292.566406 C 983.277344 290.699219 982.183594 289.078125 980.597656 287.71875 " fill-opacity="1" fill-rule="nonzero"/><path fill="#000000" d="M 959.722656 270.066406 C 955.4375 270.066406 950.8125 270.6875 946.164062 271.925781 C 938.417969 273.976562 931.574219 277.472656 926.894531 281.757812 C 922.515625 285.769531 920.617188 289.929688 921.558594 293.46875 C 921.949219 294.945312 922.835938 296.285156 924.1875 297.4375 C 925.882812 298.894531 926.492188 301.195312 925.742188 303.300781 C 925.144531 304.976562 925.042969 306.574219 925.429688 308.054688 C 926.3125 311.386719 929.710938 313.984375 934.996094 315.363281 C 935.742188 315.558594 936.269531 316.21875 936.296875 316.996094 C 936.304688 317.382812 936.351562 317.738281 936.445312 318.070312 C 937.875 323.460938 948.480469 325.515625 959.609375 322.558594 C 970.734375 319.605469 978.929688 312.558594 977.496094 307.171875 C 977.40625 306.839844 977.277344 306.507812 977.09375 306.160156 C 976.730469 305.480469 976.859375 304.636719 977.414062 304.101562 C 981.3125 300.28125 982.976562 296.34375 982.09375 293.015625 C 981.699219 291.535156 980.820312 290.195312 979.464844 289.039062 C 977.769531 287.585938 977.160156 285.285156 977.910156 283.179688 C 978.507812 281.5 978.613281 279.898438 978.21875 278.425781 C 977.28125 274.886719 973.578125 272.214844 967.78125 270.902344 C 965.300781 270.347656 962.582031 270.066406 959.722656 270.066406 Z M 949.683594 327.40625 C 941.105469 327.40625 934.5 324.320312 933.078125 318.964844 C 933.027344 318.78125 932.984375 318.589844 932.953125 318.398438 C 927.0625 316.59375 923.214844 313.265625 922.066406 308.949219 C 921.492188 306.777344 921.625 304.480469 922.46875 302.132812 C 922.730469 301.382812 922.519531 300.601562 921.917969 300.078125 C 920.023438 298.457031 918.773438 296.53125 918.191406 294.363281 C 916.90625 289.507812 919.160156 284.117188 924.546875 279.1875 C 929.625 274.53125 936.992188 270.753906 945.273438 268.554688 C 953.5625 266.359375 961.828125 265.984375 968.546875 267.507812 C 975.664062 269.117188 980.296875 272.679688 981.585938 277.53125 C 982.160156 279.703125 982.03125 281.996094 981.1875 284.347656 C 980.925781 285.097656 981.128906 285.878906 981.734375 286.398438 C 983.628906 288.023438 984.882812 289.949219 985.457031 292.121094 C 986.605469 296.4375 984.914062 301.238281 980.691406 305.722656 C 980.757812 305.90625 980.816406 306.09375 980.863281 306.277344 C 982.847656 313.742188 973.898438 322.367188 960.5 325.929688 C 956.722656 326.929688 953.050781 327.40625 949.683594 327.40625 " fill-opacity="1" fill-rule="nonzero"/><path fill="#ffffff" d="M 999.386719 143.894531 C 987.582031 99.410156 940.484375 71.289062 896.007812 83.097656 C 851.609375 94.886719 824.789062 141.527344 836.277344 186.003906 C 842.132812 208.652344 858.617188 226.792969 877.386719 237.558594 C 890.933594 245.328125 902.25 256.445312 909.925781 270.046875 L 910.296875 270.699219 C 917.742188 283.894531 933.167969 290.398438 947.8125 286.507812 L 953.820312 284.910156 C 968.464844 281.027344 978.636719 267.734375 978.558594 252.578125 L 978.558594 252.125 C 978.476562 236.617188 982.441406 221.304688 990.386719 207.996094 C 1001.496094 189.390625 1005.386719 166.496094 999.386719 143.894531 " fill-opacity="1" fill-rule="nonzero"/><path fill="#000000" d="M 916.664062 82.148438 C 909.941406 82.148438 903.164062 82.996094 896.457031 84.78125 C 852.839844 96.359375 826.601562 141.570312 837.96875 185.570312 C 843.242188 205.984375 857.921875 224.386719 878.257812 236.046875 C 892.265625 244.085938 903.742188 255.546875 911.441406 269.1875 L 911.8125 269.84375 C 918.871094 282.347656 933.488281 288.511719 947.367188 284.824219 L 953.371094 283.230469 C 967.25 279.546875 976.886719 266.945312 976.820312 252.585938 L 976.8125 252.128906 C 976.730469 236.050781 980.910156 220.476562 988.894531 207.105469 C 1000.265625 188.0625 1003.394531 165.773438 997.707031 144.339844 C 987.886719 107.359375 953.261719 82.148438 916.664062 82.148438 Z M 939.273438 289.367188 C 926.871094 289.367188 915.101562 282.75 908.78125 271.554688 L 908.410156 270.898438 C 901.019531 257.800781 889.992188 246.789062 876.527344 239.070312 C 855.386719 226.941406 840.097656 207.757812 834.59375 186.441406 C 828.910156 164.453125 832.140625 141.363281 843.675781 121.417969 C 855.25 101.433594 873.671875 87.222656 895.5625 81.414062 C 940.65625 69.453125 988.96875 97.855469 1001.070312 143.453125 C 1007.003906 165.796875 1003.742188 189.03125 991.882812 208.890625 C 984.226562 221.71875 980.214844 236.667969 980.296875 252.113281 L 980.296875 252.570312 C 980.375 268.511719 969.675781 282.503906 954.269531 286.597656 L 948.261719 288.191406 C 945.273438 288.980469 942.257812 289.367188 939.273438 289.367188 " fill-opacity="1" fill-rule="nonzero"/><path fill="#000000" d="M 926.871094 147.988281 C 926.023438 149.304688 925.339844 150.824219 924.882812 152.574219 C 921.828125 164.230469 925.125 169.136719 927.363281 171.023438 C 929.683594 172.980469 932.925781 173.449219 935.628906 172.226562 C 937.769531 171.257812 939.027344 169.417969 939.070312 167.179688 C 939.222656 159.253906 933.390625 151.660156 926.871094 147.988281 Z M 902.960938 155.113281 C 901.203125 158.675781 900.203125 163.167969 900.015625 168.453125 C 899.804688 174.324219 901.542969 178.773438 904.789062 180.660156 C 906.882812 181.886719 909.363281 181.863281 911.40625 180.605469 C 913.925781 179.050781 915.238281 175.992188 915.011719 172.203125 C 914.664062 166.53125 908.878906 156.792969 902.960938 155.113281 Z M 940.484375 275.734375 C 939.722656 275.734375 939.027344 275.234375 938.804688 274.46875 C 922.714844 217.214844 897.714844 191.402344 887.714844 182.960938 C 882.332031 178.429688 879.632812 171.683594 880.484375 164.925781 C 881.421875 157.496094 889.363281 150.546875 901.09375 151.332031 C 902.757812 148.714844 904.652344 146.914062 906.394531 145.683594 C 912.332031 141.476562 919.480469 141.554688 924.191406 143.035156 C 924.742188 143.203125 925.292969 143.402344 925.839844 143.625 C 930.46875 138.582031 937.214844 136.84375 941.898438 137.082031 C 948.300781 137.40625 953.265625 141.039062 956.246094 147.578125 C 958.257812 151.988281 958.382812 157.417969 956.636719 164.65625 C 954.082031 175.234375 941.921875 230.164062 953.046875 272.777344 C 953.289062 273.707031 952.730469 274.664062 951.804688 274.90625 C 950.867188 275.144531 949.917969 274.589844 949.675781 273.660156 C 938.34375 230.238281 950.667969 174.558594 953.25 163.839844 C 954.785156 157.488281 954.730469 152.636719 953.078125 149.027344 C 950.640625 143.667969 946.816406 140.820312 941.71875 140.554688 C 938.101562 140.367188 932.902344 141.636719 929.113281 145.261719 C 936.359375 149.5625 942.726562 157.976562 942.546875 167.246094 C 942.480469 170.828125 940.433594 173.875 937.066406 175.402344 C 933.148438 177.175781 928.457031 176.503906 925.113281 173.6875 C 922.25 171.269531 917.980469 165.199219 921.519531 151.691406 C 922.023438 149.75 922.765625 148.039062 923.671875 146.527344 C 923.496094 146.46875 923.332031 146.410156 923.15625 146.355469 C 919.238281 145.132812 913.304688 145.058594 908.40625 148.527344 C 907.054688 149.484375 905.851562 150.667969 904.808594 152.0625 C 912.054688 154.820312 918.082031 165.289062 918.484375 171.992188 C 918.796875 177.101562 916.882812 181.324219 913.230469 183.566406 C 910.121094 185.484375 906.214844 185.519531 903.035156 183.671875 C 898.648438 181.113281 896.277344 175.523438 896.535156 168.328125 C 896.742188 162.613281 897.808594 158.1875 899.292969 154.75 C 899.273438 154.75 899.25 154.75 899.230469 154.75 C 889.632812 154.75 884.527344 160.703125 883.9375 165.363281 C 883.242188 170.863281 885.546875 176.585938 889.953125 180.304688 C 900.203125 188.949219 925.808594 215.339844 942.160156 273.523438 C 942.421875 274.449219 941.878906 275.410156 940.953125 275.671875 C 940.796875 275.714844 940.636719 275.734375 940.484375 275.734375 " fill-opacity="1" fill-rule="nonzero"/><path fill="#000000" d="M 968.652344 207.90625 C 968.226562 207.90625 967.800781 207.746094 967.46875 207.4375 C 966.765625 206.777344 966.726562 205.679688 967.378906 204.980469 C 979.351562 192.121094 985.800781 174.703125 985.074219 157.171875 C 985.03125 156.207031 985.777344 155.398438 986.738281 155.359375 C 987.730469 155.316406 988.507812 156.066406 988.550781 157.023438 C 989.316406 175.476562 982.53125 193.824219 969.929688 207.347656 C 969.585938 207.71875 969.121094 207.90625 968.652344 207.90625 " fill-opacity="1" fill-rule="nonzero"/><path fill="#000000" d="M 878.515625 221.839844 C 878.183594 221.839844 877.851562 221.753906 877.558594 221.558594 C 863.359375 212.160156 853.132812 197.914062 848.761719 181.441406 C 841.941406 155.742188 850.117188 128.882812 870.097656 111.339844 C 870.820312 110.707031 871.925781 110.78125 872.554688 111.5 C 873.191406 112.226562 873.121094 113.328125 872.394531 113.960938 C 853.417969 130.621094 845.648438 156.132812 852.125 180.546875 C 856.28125 196.191406 865.992188 209.726562 879.480469 218.652344 C 880.28125 219.183594 880.5 220.261719 879.96875 221.0625 C 879.636719 221.566406 879.085938 221.839844 878.515625 221.839844 " fill-opacity="1" fill-rule="nonzero"/><path fill="#ffffff" d="M 957.25 294.726562 C 956.589844 294.726562 955.960938 294.351562 955.667969 293.710938 C 955.265625 292.835938 955.652344 291.804688 956.527344 291.40625 C 959.121094 290.214844 961.609375 288.917969 963.933594 287.542969 C 964.757812 287.054688 965.824219 287.328125 966.316406 288.15625 C 966.808594 288.980469 966.527344 290.050781 965.699219 290.539062 C 963.277344 291.976562 960.679688 293.332031 957.972656 294.566406 C 957.742188 294.679688 957.492188 294.726562 957.25 294.726562 " fill-opacity="1" fill-rule="nonzero"/><path fill="#ffffff" d="M 948.691406 313.519531 C 947.929688 313.519531 947.230469 313.015625 947.011719 312.242188 C 946.761719 311.3125 947.304688 310.355469 948.234375 310.097656 C 954.375 308.40625 963.191406 305.152344 970.257812 299.238281 C 970.996094 298.621094 972.089844 298.714844 972.710938 299.457031 C 973.328125 300.195312 973.230469 301.289062 972.492188 301.90625 C 964.941406 308.222656 955.636719 311.671875 949.15625 313.457031 C 949.003906 313.5 948.84375 313.519531 948.691406 313.519531 " fill-opacity="1" fill-rule="nonzero"/><path fill="#000000" d="M 920.222656 62.25 C 920.214844 62.25 920.203125 62.25 920.191406 62.25 C 919.226562 62.234375 918.464844 61.4375 918.480469 60.480469 L 919.152344 23.671875 C 919.171875 22.707031 919.992188 21.9375 920.925781 21.960938 C 921.886719 21.972656 922.648438 22.769531 922.636719 23.730469 L 921.960938 60.542969 C 921.945312 61.492188 921.171875 62.25 920.222656 62.25 " fill-opacity="1" fill-rule="nonzero"/><path fill="#000000" d="M 871.5625 78.195312 C 870.917969 78.195312 870.296875 77.839844 870 77.222656 L 853.828125 44.144531 C 853.40625 43.28125 853.761719 42.238281 854.628906 41.816406 C 855.492188 41.390625 856.535156 41.75 856.953125 42.613281 L 873.125 75.691406 C 873.546875 76.554688 873.191406 77.597656 872.324219 78.015625 C 872.082031 78.140625 871.820312 78.195312 871.5625 78.195312 " fill-opacity="1" fill-rule="nonzero"/><path fill="#000000" d="M 793.121094 170.292969 C 792.347656 170.292969 791.640625 169.777344 791.4375 169 C 791.195312 168.074219 791.746094 167.121094 792.671875 166.871094 L 815.394531 160.855469 C 816.332031 160.613281 817.277344 161.164062 817.519531 162.09375 C 817.769531 163.023438 817.214844 163.976562 816.285156 164.226562 L 793.570312 170.238281 C 793.414062 170.28125 793.269531 170.292969 793.121094 170.292969 " fill-opacity="1" fill-rule="nonzero"/><path fill="#000000" d="M 818.398438 116.539062 C 818.269531 116.539062 818.125 116.519531 817.988281 116.488281 L 788.6875 109.402344 C 787.757812 109.175781 787.183594 108.234375 787.40625 107.304688 C 787.628906 106.371094 788.574219 105.792969 789.511719 106.019531 L 818.808594 113.097656 C 819.742188 113.328125 820.316406 114.269531 820.089844 115.207031 C 819.898438 116 819.183594 116.539062 818.398438 116.539062 " fill-opacity="1" fill-rule="nonzero"/><path fill="#000000" d="M 1007.945312 117.269531 C 1007.175781 117.269531 1006.472656 116.753906 1006.265625 115.972656 C 1006.019531 115.050781 1006.570312 114.09375 1007.496094 113.847656 L 1030.207031 107.800781 C 1031.132812 107.546875 1032.09375 108.105469 1032.339844 109.035156 C 1032.585938 109.964844 1032.035156 110.921875 1031.109375 111.167969 L 1008.398438 117.210938 C 1008.246094 117.253906 1008.097656 117.269531 1007.945312 117.269531 " fill-opacity="1" fill-rule="nonzero"/><path fill="#000000" d="M 980.539062 81.011719 C 980.078125 81.011719 979.613281 80.828125 979.273438 80.464844 C 978.613281 79.765625 978.644531 78.664062 979.347656 78.007812 L 1001.273438 57.316406 C 1001.976562 56.660156 1003.074219 56.691406 1003.734375 57.390625 C 1004.398438 58.089844 1004.367188 59.191406 1003.667969 59.855469 L 981.734375 80.539062 C 981.398438 80.851562 980.964844 81.011719 980.539062 81.011719 " fill-opacity="1" fill-rule="nonzero"/><path fill="#ffffff" d="M 426.878906 886.941406 C 434.792969 861.597656 435.546875 820.238281 426.878906 794.433594 L 433.097656 785.457031 L 669.234375 792.414062 L 663.371094 888.832031 L 432.679688 890.027344 L 426.878906 886.941406 " fill-opacity="1" fill-rule="nonzero"/><path fill="#000000" d="M 428.960938 886.078125 L 433.109375 888.285156 L 661.734375 887.097656 L 667.390625 794.097656 L 433.992188 787.226562 L 428.804688 794.714844 C 436.742188 819.246094 436.796875 859.601562 428.960938 886.078125 Z M 432.679688 891.765625 C 432.398438 891.765625 432.117188 891.691406 431.863281 891.5625 L 426.058594 888.476562 C 425.320312 888.082031 424.964844 887.21875 425.214844 886.417969 C 433.378906 860.28125 433.382812 819.269531 425.226562 794.992188 C 425.050781 794.472656 425.132812 793.898438 425.449219 793.445312 L 431.667969 784.46875 C 432.003906 783.984375 432.578125 783.683594 433.148438 783.71875 L 669.289062 790.671875 C 669.761719 790.6875 670.203125 790.890625 670.523438 791.238281 C 670.839844 791.585938 671.003906 792.050781 670.972656 792.519531 L 665.109375 888.933594 C 665.054688 889.851562 664.296875 890.570312 663.378906 890.574219 L 432.691406 891.765625 C 432.691406 891.765625 432.683594 891.765625 432.679688 891.765625 " fill-opacity="1" fill-rule="nonzero"/><path fill="#5479f7" d="M 774.992188 780.59375 L 423.71875 780.59375 C 420.027344 780.59375 417.035156 781.734375 417.035156 787.480469 C 417.035156 793.222656 420.027344 794.367188 423.71875 794.367188 L 641.074219 794.367188 C 651.710938 794.367188 660.332031 804.265625 660.332031 820.8125 L 660.332031 860.496094 C 660.332031 877.042969 651.710938 886.058594 641.074219 886.058594 L 423.71875 886.058594 C 420.027344 886.058594 417.035156 886.324219 417.035156 892.066406 C 417.035156 897.816406 420.027344 898.957031 423.71875 898.957031 L 774.992188 898.957031 C 794.597656 898.957031 810.5 874.226562 810.5 843.71875 L 810.5 835.832031 C 810.5 805.320312 794.597656 780.59375 774.992188 780.59375 " fill-opacity="1" fill-rule="nonzero"/><path fill="#000000" d="M 774.992188 900.695312 L 423.71875 900.695312 C 418.046875 900.695312 415.292969 897.875 415.292969 892.066406 C 415.292969 884.320312 420.566406 884.320312 423.71875 884.320312 L 641.078125 884.320312 C 651.714844 884.320312 658.589844 874.96875 658.589844 860.496094 L 658.589844 820.8125 C 658.589844 806.265625 651.390625 796.109375 641.078125 796.109375 L 568.121094 796.109375 C 567.15625 796.109375 566.378906 795.328125 566.378906 794.367188 C 566.378906 793.402344 567.15625 792.625 568.121094 792.625 L 641.078125 792.625 C 653.4375 792.625 662.070312 804.214844 662.070312 820.8125 L 662.070312 860.496094 C 662.070312 879.359375 651.527344 887.804688 641.078125 887.804688 L 423.71875 887.804688 C 420.046875 887.804688 418.773438 888.007812 418.773438 892.066406 C 418.773438 896.398438 420.511719 897.21875 423.71875 897.21875 L 774.992188 897.21875 C 793.609375 897.21875 808.753906 873.214844 808.753906 843.71875 L 808.753906 835.832031 C 808.753906 806.335938 793.609375 782.335938 774.992188 782.335938 L 569.871094 782.335938 C 568.90625 782.335938 568.128906 781.558594 568.128906 780.59375 C 568.128906 779.628906 568.90625 778.851562 569.871094 778.851562 L 774.992188 778.851562 C 795.527344 778.851562 812.234375 804.410156 812.234375 835.832031 L 812.234375 843.71875 C 812.234375 875.136719 795.527344 900.695312 774.992188 900.695312 " fill-opacity="1" fill-rule="nonzero"/><path fill="#000000" d="M 568.121094 796.109375 L 423.71875 796.109375 C 418.046875 796.109375 415.292969 793.289062 415.292969 787.480469 C 415.292969 781.675781 418.046875 778.851562 423.71875 778.851562 L 569.871094 778.851562 C 570.832031 778.851562 571.609375 779.628906 571.609375 780.59375 C 571.609375 781.558594 570.832031 782.335938 569.871094 782.335938 L 423.71875 782.335938 C 420.511719 782.335938 418.773438 783.152344 418.773438 787.480469 C 418.773438 791.808594 420.511719 792.625 423.71875 792.625 L 568.121094 792.625 C 569.082031 792.625 569.859375 793.402344 569.859375 794.367188 C 569.859375 795.328125 569.082031 796.109375 568.121094 796.109375 " fill-opacity="1" fill-rule="nonzero"/><path fill="#caddff" d="M 584.191406 825.441406 L 561.625 825.441406 C 560.664062 825.441406 559.882812 824.664062 559.882812 823.699219 C 559.882812 822.742188 560.664062 821.960938 561.625 821.960938 L 584.191406 821.960938 C 585.15625 821.960938 585.933594 822.742188 585.933594 823.699219 C 585.933594 824.664062 585.15625 825.441406 584.191406 825.441406 " fill-opacity="1" fill-rule="nonzero"/><path fill="#caddff" d="M 541.015625 825.441406 L 443.292969 825.441406 C 442.328125 825.441406 441.550781 824.664062 441.550781 823.699219 C 441.550781 822.742188 442.328125 821.960938 443.292969 821.960938 L 541.015625 821.960938 C 541.976562 821.960938 542.757812 822.742188 542.757812 823.699219 C 542.757812 824.664062 541.976562 825.441406 541.015625 825.441406 " fill-opacity="1" fill-rule="nonzero"/><path fill="#caddff" d="M 553.679688 837.972656 L 443.898438 837.972656 C 442.9375 837.972656 442.15625 837.195312 442.15625 836.230469 C 442.15625 835.273438 442.9375 834.492188 443.898438 834.492188 L 553.679688 834.492188 C 554.640625 834.492188 555.421875 835.273438 555.421875 836.230469 C 555.421875 837.195312 554.640625 837.972656 553.679688 837.972656 " fill-opacity="1" fill-rule="nonzero"/><path fill="#caddff" d="M 584.429688 860.433594 L 570.269531 860.433594 C 569.3125 860.433594 568.53125 859.652344 568.53125 858.695312 C 568.53125 857.730469 569.3125 856.953125 570.269531 856.953125 L 584.429688 856.953125 C 585.390625 856.953125 586.171875 857.730469 586.171875 858.695312 C 586.171875 859.652344 585.390625 860.433594 584.429688 860.433594 " fill-opacity="1" fill-rule="nonzero"/><path fill="#caddff" d="M 553.074219 860.433594 L 443.292969 860.433594 C 442.328125 860.433594 441.550781 859.652344 441.550781 858.695312 C 441.550781 857.730469 442.328125 856.953125 443.292969 856.953125 L 553.074219 856.953125 C 554.035156 856.953125 554.816406 857.730469 554.816406 858.695312 C 554.816406 859.652344 554.035156 860.433594 553.074219 860.433594 " fill-opacity="1" fill-rule="nonzero"/><path fill="#ffffff" d="M 439.328125 974.0625 L 771.300781 974.0625 L 771.300781 906.507812 L 439.328125 906.507812 C 448.046875 929.324219 448.285156 951.855469 439.328125 974.0625 " fill-opacity="1" fill-rule="nonzero"/><path fill="#000000" d="M 441.871094 972.324219 L 769.558594 972.324219 L 769.558594 908.253906 L 441.824219 908.253906 C 449.601562 930.046875 449.613281 951.578125 441.871094 972.324219 Z M 771.300781 975.800781 L 439.328125 975.800781 C 438.75 975.800781 438.207031 975.519531 437.882812 975.039062 C 437.5625 974.554688 437.496094 973.949219 437.714844 973.414062 C 446.335938 952.027344 446.335938 929.726562 437.699219 907.128906 C 437.496094 906.59375 437.566406 905.992188 437.894531 905.519531 C 438.21875 905.050781 438.753906 904.765625 439.328125 904.765625 L 771.300781 904.765625 C 772.265625 904.765625 773.042969 905.546875 773.042969 906.507812 L 773.042969 974.0625 C 773.042969 975.023438 772.265625 975.800781 771.300781 975.800781 " fill-opacity="1" fill-rule="nonzero"/><path fill="#99b9ff" d="M 735.746094 909.84375 L 437.296875 909.84375 C 434.148438 909.84375 431.59375 907.457031 431.59375 904.519531 C 431.59375 901.578125 434.148438 899.195312 437.296875 899.195312 L 813.679688 899.195312 C 827.515625 899.195312 838.734375 909.667969 838.734375 922.589844 L 838.734375 959.355469 C 838.734375 972.273438 827.515625 982.746094 813.679688 982.746094 L 437.296875 982.746094 C 434.148438 982.746094 431.59375 980.367188 431.59375 977.421875 C 431.59375 974.484375 434.148438 972.101562 437.296875 972.101562 L 735.746094 972.101562 C 745.523438 972.101562 753.445312 964.707031 753.445312 955.574219 L 753.445312 926.367188 C 753.445312 917.238281 745.523438 909.84375 735.746094 909.84375 " fill-opacity="1" fill-rule="nonzero"/><path fill="#000000" d="M 437.296875 973.84375 C 435.113281 973.84375 433.335938 975.449219 433.335938 977.421875 C 433.335938 979.398438 435.113281 981.007812 437.296875 981.007812 L 813.679688 981.007812 C 826.53125 981.007812 836.992188 971.296875 836.992188 959.355469 L 836.992188 922.589844 C 836.992188 910.644531 826.53125 900.9375 813.679688 900.9375 L 437.296875 900.9375 C 435.113281 900.9375 433.335938 902.546875 433.335938 904.519531 C 433.335938 906.492188 435.113281 908.097656 437.296875 908.097656 L 735.746094 908.097656 C 746.464844 908.097656 755.1875 916.292969 755.1875 926.367188 L 755.1875 955.574219 C 755.1875 965.652344 746.464844 973.84375 735.746094 973.84375 Z M 813.679688 984.488281 L 437.296875 984.488281 C 433.195312 984.488281 429.855469 981.320312 429.855469 977.421875 C 429.855469 973.535156 433.195312 970.363281 437.296875 970.363281 L 735.746094 970.363281 C 744.542969 970.363281 751.703125 963.730469 751.703125 955.574219 L 751.703125 926.367188 C 751.703125 918.210938 744.542969 911.578125 735.746094 911.578125 L 437.296875 911.578125 C 433.195312 911.578125 429.855469 908.414062 429.855469 904.519531 C 429.855469 900.621094 433.195312 897.453125 437.296875 897.453125 L 813.679688 897.453125 C 828.453125 897.453125 840.476562 908.730469 840.476562 922.589844 L 840.476562 959.355469 C 840.476562 973.21875 828.453125 984.488281 813.679688 984.488281 " fill-opacity="1" fill-rule="nonzero"/><path fill="#99b9ff" d="M 530.441406 924.292969 L 458.984375 924.292969 C 458.019531 924.292969 457.242188 923.511719 457.242188 922.550781 C 457.242188 921.585938 458.019531 920.808594 458.984375 920.808594 L 530.441406 920.808594 C 531.40625 920.808594 532.183594 921.585938 532.183594 922.550781 C 532.183594 923.511719 531.40625 924.292969 530.441406 924.292969 " fill-opacity="1" fill-rule="nonzero"/><path fill="#99b9ff" d="M 714.84375 924.292969 L 635.570312 924.292969 C 634.609375 924.292969 633.828125 923.511719 633.828125 922.550781 C 633.828125 921.585938 634.609375 920.808594 635.570312 920.808594 L 714.84375 920.808594 C 715.804688 920.808594 716.585938 921.585938 716.585938 922.550781 C 716.585938 923.511719 715.804688 924.292969 714.84375 924.292969 " fill-opacity="1" fill-rule="nonzero"/><path fill="#99b9ff" d="M 536.539062 938.582031 L 459.902344 938.582031 C 458.941406 938.582031 458.160156 937.796875 458.160156 936.835938 C 458.160156 935.875 458.941406 935.097656 459.902344 935.097656 L 536.539062 935.097656 C 537.5 935.097656 538.28125 935.875 538.28125 936.835938 C 538.28125 937.796875 537.5 938.582031 536.539062 938.582031 " fill-opacity="1" fill-rule="nonzero"/><path fill="#99b9ff" d="M 726.613281 938.582031 L 628.1875 938.582031 C 627.226562 938.582031 626.445312 937.796875 626.445312 936.835938 C 626.445312 935.875 627.226562 935.097656 628.1875 935.097656 L 726.613281 935.097656 C 727.570312 935.097656 728.355469 935.875 728.355469 936.835938 C 728.355469 937.796875 727.570312 938.582031 726.613281 938.582031 " fill-opacity="1" fill-rule="nonzero"/><path fill="#99b9ff" d="M 603.3125 958.277344 L 459.902344 958.277344 C 458.941406 958.277344 458.160156 957.496094 458.160156 956.53125 C 458.160156 955.574219 458.941406 954.796875 459.902344 954.796875 L 603.3125 954.796875 C 604.277344 954.796875 605.054688 955.574219 605.054688 956.53125 C 605.054688 957.496094 604.277344 958.277344 603.3125 958.277344 " fill-opacity="1" fill-rule="nonzero"/><path fill="#99b9ff" d="M 726.257812 958.277344 L 634.441406 958.277344 C 633.480469 958.277344 632.703125 957.496094 632.703125 956.53125 C 632.703125 955.574219 633.480469 954.796875 634.441406 954.796875 L 726.257812 954.796875 C 727.21875 954.796875 727.996094 955.574219 727.996094 956.53125 C 727.996094 957.496094 727.21875 958.277344 726.257812 958.277344 " fill-opacity="1" fill-rule="nonzero"/></svg>